<?xml version="1.0" encoding="UTF-8"?>
<!-- Monochrome macOS template version of the MaxMi standing-dog mark. -->
<svg width="44" height="44" viewBox="0 0 1024 1024" xmlns="http://www.w3.org/2000/svg">
  <g fill="#000000">
    <rect x="300" y="440" width="380" height="170" rx="85"/>
    <ellipse cx="640" cy="470" rx="110" ry="120"/>
    <ellipse cx="330" cy="520" rx="110" ry="120"/>
    <rect x="620" y="320" width="120" height="180" rx="55" transform="rotate(18 680 410)"/>
    <circle cx="740" cy="320" r="92"/>
    <path d="M812 300 q 96 8 116 60 q 8 30 -28 44 l -96 20 q -40 4 -44 -34 z"/>
    <path d="M700 268 q -44 -34 -30 -92 q 10 -34 46 -24 q 44 14 60 66 q 12 44 -18 74 q -34 22 -58 -30 z"/>
    <rect x="330" y="590" width="66" height="180" rx="30"/>
    <rect x="420" y="600" width="60" height="170" rx="28"/>
    <rect x="560" y="600" width="60" height="170" rx="28"/>
    <rect x="640" y="590" width="66" height="180" rx="30"/>
    <path d="M300 470 q -70 -20 -104 -78 q -16 -30 12 -48 q 26 -14 46 16 q 26 42 62 58 q 26 12 -16 52 z"/>
  </g>
</svg>
