<?xml version="1.0" encoding="UTF-8"?>
<!-- Simplified silhouette of the MaxMi dog head for the 18pt macOS menu bar. -->
<svg width="44" height="44" viewBox="120 150 784 784" xmlns="http://www.w3.org/2000/svg">
  <defs>
    <mask id="face-cutouts">
      <rect x="120" y="150" width="784" height="784" fill="#ffffff"/>
      <circle cx="438" cy="454" r="25" fill="#000000"/>
      <circle cx="586" cy="454" r="25" fill="#000000"/>
      <path d="M472 522
               C472 498 552 498 552 522
               C552 552 532 568 512 568
               C492 568 472 552 472 522 Z"
            fill="#000000"/>
      <path d="M512 566 V586
               M512 586 C490 608 470 608 456 592
               M512 586 C534 608 554 608 568 592"
            fill="none" stroke="#000000" stroke-width="21"
            stroke-linecap="round" stroke-linejoin="round"/>
    </mask>
  </defs>
  <g fill="#000000" mask="url(#face-cutouts)">
    <path d="M376 330
             C326 272 244 282 206 350
             C168 418 212 542 292 648
             C326 692 380 670 386 616
             L406 414
             C410 380 400 352 376 330 Z"/>
    <path d="M648 330
             C698 272 780 282 818 350
             C856 418 812 542 732 648
             C698 692 644 670 638 616
             L618 414
             C614 380 624 352 648 330 Z"/>
    <path d="M512 246
             C622 246 690 326 684 436
             C680 518 662 614 608 682
             C566 734 458 734 416 682
             C362 614 344 518 340 436
             C334 326 402 246 512 246 Z"/>
  </g>
</svg>
